<svg id="Layer_1" data-name="Layer 1" xmlns="http://www.w3.org/2000/svg" viewBox="0 0 1998.94 760.47"><defs><style>.cls-1{fill:#2215ce;stroke:#000;stroke-miterlimit:10;}</style></defs><title>Untitled-2</title><path class="cls-1" d="M-.5,521.5c114,71.65,321.36,182.78,560,200,105.37,7.6,206-20,206-20,52.08-13.08,79.11-26.66,94-35,10.36-5.8,58.65-33.62,102-87,13.6-16.75,25.75-34.83,42-59,25.46-37.87,29.34-47.81,44-64,12.48-13.78,32.94-32.3,66-48,0,0,28.1-10.86,61-10,104.18,2.72,607.26,136.85,745,27,103.31-82.39,105.16-331.34,0-426-76.1-68.5-170.4-21.86-641-4-58.41,2.21-128.7,4.81-221,5.05-261.08.69-377.27-18.27-556-24C385.21-27.23,213.31-26.29-.5-.5" transform="translate(0.77 37.15)"/></svg>